<?xml version="1.0" encoding="utf-8"?>
<!-- Generator: Adobe Illustrator 16.0.3, SVG Export Plug-In . SVG Version: 6.00 Build 0)  -->
<!DOCTYPE svg PUBLIC "-//W3C//DTD SVG 1.1//EN" "http://www.w3.org/Graphics/SVG/1.1/DTD/svg11.dtd">
<svg version="1.1" id="圖層_1" xmlns="http://www.w3.org/2000/svg" xmlns:xlink="http://www.w3.org/1999/xlink" x="0px" y="0px"
	 width="434.201px" height="434.918px" viewBox="0 0 434.201 434.918" enable-background="new 0 0 434.201 434.918"
	 xml:space="preserve">
<g>
	<path fill="#FFFFFF" d="M228.466,16.619c0-5.466,0-10.582,0-16.619c6.127,0.451,12.195,0.683,18.212,1.372
		c99.838,11.442,169.677,86.55,184.693,180.197c20.744,129.375-75.476,239.098-193.253,251.486
		c-3.088,0.326-6.186,0.564-9.596,0.871c0-5.396,0-10.164,0-15.383c63.422-3.85,114.988-30.127,152.127-82.276
		c23.753-33.353,34.972-71.091,36.45-112.735c-26.639,0-52.979,0-79.583,0c0-5.066,0-9.309,0-14.184c26.455,0,52.694,0,78.952,0
		C412.141,111.392,343.011,22.076,228.466,16.619z"/>
	<path fill="#FFFFFF" d="M16.746,209.259c23.071,0,45.828,0,68.951,0c0,4.754,0,8.994,0,13.945c-22.695,0-45.571,0-69.308,0
		c3.506,51.899,20.104,97.644,55.207,135.586c35.467,38.338,80.087,57.43,132.424,59.684c0,4.436,0.022,8.402-0.018,12.369
		c-0.01,0.959-0.229,1.916-0.508,4.076c-11.57-1.555-23.01-2.465-34.187-4.693C86.457,413.694,22.113,349.319,5.265,265.62
		c-15.26-75.803,2.447-143.014,55.778-199.433C98.089,26.997,144.419,5.65,198.24,0.854c1.654-0.147,3.306-0.32,5.789-0.563
		c0,2.655,0,5.212,0,7.769c0,2.656,0,5.313,0,8.385c-6.764,0.662-13.364,1.022-19.875,1.989
		C114.832,28.726,66.677,67.06,37.408,129.963c-11.118,23.896-17.331,49.258-20.454,75.391
		C16.821,206.468,16.831,207.599,16.746,209.259z"/>
	<path fill="#FFFFFF" d="M208.62,306.918c0-15.928,0-31.379,0-47.765c5.57,0,11.16,0.229,16.709-0.135
		c1.754-0.116,4.156-1.401,4.986-2.871c23.729-42.057,47.301-84.205,70.885-126.346c0.377-0.674,0.586-1.441,1.125-2.798
		c-8.158,0-15.859-0.749-23.299,0.321c-3.635,0.522-6.627,4.705-10.191,6.739c-4.182,2.388-4.862,5.89-4.426,10.134
		c0.168,1.638,0.027,3.308,0.027,5.377c-17.193,0-34.054,0-51.229,0c0-20.341,0-40.587,0-61.12c48.711,0,97.322,0,146.64,0
		c0,5.563-0.543,11.565,0.102,17.438c1.965,17.929-3.184,33.528-12.031,49.144c-18.219,32.15-34.971,65.133-52.321,97.775
		c-0.923,1.733-1.813,3.483-3.146,6.052c4.416,0,8.105,0,12.168,0c0,16.35,0,32.047,0,48.055
		C272.685,306.918,240.933,306.918,208.62,306.918z M274.738,268.319c1.324-2.66,2.088-4.29,2.93-5.877
		c22.5-42.344,45.015-84.682,67.505-127.03c1.01-1.901,2.578-3.882,2.625-5.855c0.26-10.772,0.125-21.556,0.125-32.355
		c-1.197-0.243-1.83-0.483-2.461-0.484c-23.826-0.026-47.65-0.077-71.476,0.057c-1.795,0.01-3.787,1.061-5.338,2.132
		c-5.142,3.553-10.121,7.337-15.818,11.512c-0.231-4.909-0.424-8.945-0.619-13.056c-9.303,0-18.053,0-26.948,0
		c0,14.646,0,28.985,0,43.357c9.25,0,18.024,0,27.471,0c-2.244-6.688,2.742-9.059,6.625-12.11c3.535-2.78,6.928-5.775,10.664-8.252
		c1.93-1.279,4.459-2.269,6.733-2.306c13.158-0.212,26.322-0.11,39.484-0.086c1.217,0.003,2.437,0.206,4.148,0.36
		c-1.127,2.129-1.935,3.736-2.812,5.304c-24.727,44.169-49.662,88.223-74.012,132.599c-4.553,8.295-8.879,14.497-19.406,11.993
		c-0.469-0.111-1.162-0.187-1.463,0.065c-0.877,0.734-2.278,1.631-2.293,2.486c-0.167,8.941-0.104,17.891-0.104,27.063
		c24.526,0,48.403,0,72.5,0c0-9.912,0-19.475,0-29.517C286.896,268.319,281.285,268.319,274.738,268.319z"/>
	<path fill="#FFFFFF" d="M93.464,307.489c-0.093-1.285-0.244-2.408-0.246-3.533c-0.016-14.463-0.011-28.929-0.011-43.965
		c5.974,0,11.546,0,17.753,0c3.132-44.114,6.229-87.701,9.377-132.054c-5.992,0-11.404,0-17.589,0
		c0.436-7.165,0.697-13.589,1.324-19.977c0.12-1.225,1.513-2.502,2.6-3.423c5.72-4.847,11.481-9.647,17.348-14.313
		c1.199-0.954,2.906-1.785,4.386-1.796c16.329-0.121,32.659-0.075,48.989-0.042c0.793,0.001,1.586,0.298,2.725,0.525
		c-3.319,56.805-6.631,113.479-9.98,170.811c6.585,0,12.818,0,19.357,0c0,16.221,0,31.802,0,47.767
		C157.487,307.489,125.629,307.489,93.464,307.489z M177.518,298.588c0-9.991,0-19.686,0-29.889c-6.659,0-12.924,0-19.754,0
		c3.332-57.284,6.632-114.025,9.962-171.297c-7.542,0-14.406,0.603-21.122-0.139c-10.507-1.159-18.88,1.876-26.582,9.142
		c-3.9,3.679-5.521,7.004-4.291,12.738c5.552,0,11.118,0,17.106,0c-3.574,50.35-7.093,99.894-10.642,149.86
		c-6.063,0-11.324,0-16.651,0c0,10.179,0,19.863,0,29.582C129.75,298.588,153.499,298.588,177.518,298.588z"/>
	<path fill="#FFFFFF" d="M306.867,355.262c9.593,0,19.351,0,29.183,0c1.278,3.277,0.6,4.74-3.068,4.686
		c-8.938-0.137-17.885-0.045-27.172-0.045c0,3.379,0,6.277,0,9.819c11.359,0,22.551,0,34.078,0c0.162,2.183,0.279,3.759,0.432,5.801
		c-16.832,0-33.313,0-50.205,0c0-5.287,0-10.481,0-15.442C295.445,356.999,303.009,363.215,306.867,355.262z"/>
	<path fill="#FFFFFF" d="M125.666,360.379c-4.005,2.765-8.01,5.527-12.015,8.293c0.11,0.357,0.22,0.718,0.33,1.076
		c11.5,0,23,0,34.826,0c0,2.287,0,3.98,0,5.945c-18.638,0-37.035,0-55.558,0c-1.475-3.688-0.72-6.383,2.881-8.306
		c2.042-1.093,4.073-2.361,5.767-3.923C108.986,356.929,117.389,359.965,125.666,360.379z"/>
	<path fill="#FFFFFF" d="M147.73,339.176c1.38,4.174-0.593,6.142-3.326,8.672c-8.169,7.564-17.715,8.02-28.922,6.641
		c4.448-3.082,8.271-5.732,12.097-8.382c-0.085-0.313-0.17-0.626-0.255-0.938c-10.51,0-21.02,0-32.062,0
		c-0.119-2.244-0.208-3.949-0.316-5.99C112.719,339.176,130.119,339.176,147.73,339.176z"/>
	<path fill="#FFFFFF" d="M286.746,375.942c-7.344,0-14.135,0.059-20.924-0.063c-1.021-0.019-2.275-0.643-3-1.393
		c-4.494-4.648-8.869-9.414-13.609-14.49c9.367-2.35,16.734-0.555,22.609,7.274c0.156-2.384,0.313-4.767,0.52-7.935
		c4.119,0,8.201-0.11,12.269,0.101c0.748,0.039,2.008,1.362,2.041,2.136C286.841,366.178,286.746,370.795,286.746,375.942z"/>
	<path fill="#FFFFFF" d="M305.619,344.663c-0.184,3.871-0.324,6.793-0.477,9.996c-5.146,0-10.037,0-15.283,0
		c0-5.125,0-10.039,0-15.379c16.172,0,32.32,0,48.846,0c0.104,1.592,0.205,3.174,0.347,5.383
		C327.91,344.663,317.042,344.663,305.619,344.663z"/>
	<path fill="#FFFFFF" d="M220.35,338.885c7.376,0,14.474-0.039,21.567,0.05c0.89,0.012,1.996,0.476,2.615,1.108
		c4.48,4.572,8.863,9.244,13.461,14.076c-10,3.121-17.01-0.418-23.024-7.943c-0.158,2.701-0.314,5.404-0.49,8.438
		c-4.748,0-9.277,0-14.128,0C220.35,349.54,220.35,344.629,220.35,338.885z"/>
	<path fill="#FFFFFF" d="M179.348,375.625c-16.29,1.342-29.611-5.356-31.364-16.31c4.679,0,9.253-0.096,13.815,0.088
		c0.831,0.033,2.104,1.062,2.344,1.874c1.827,6.189,6.553,8.416,12.286,9.488C179.64,371.366,179.626,371.441,179.348,375.625z"/>
	<path fill="#FFFFFF" d="M201.206,354.683c-2.012-7.972-8.019-10.021-15.207-11.007c0-1.721,0-3.404,0-5.081
		c15.105-1.453,29.271,5.856,30.849,16.088C211.722,354.683,206.636,354.683,201.206,354.683z"/>
	<path fill="#FFFFFF" d="M186.362,375.779c-0.088-1.544-0.161-2.804-0.256-4.473c7.267-1.214,13.976-3.201,15.184-11.71
		c5.477,0,10.548,0,15.644,0C216.059,369.782,203.906,376.236,186.362,375.779z"/>
	<path fill="#FFFFFF" d="M163.916,354.672c-5.437,0-10.518,0-15.586,0c-0.232-10.019,15.135-16.506,30.596-16.188
		c0.104,1.53,0.213,3.101,0.342,4.989C172.221,344.897,165.368,346.383,163.916,354.672z"/>
	<path fill="#FFFFFF" d="M234.781,375.69c-5.148,0-9.568,0-14.331,0c0-5.335,0-10.404,0-16.361c3.961,0,8.022-0.139,12.055,0.116
		c0.81,0.052,2.127,1.573,2.175,2.472C234.904,366.349,234.781,370.799,234.781,375.69z"/>
	<path fill="#FFFFFF" d="M272.433,339.102c4.733,0,9.149,0,13.91,0c0,5.271,0,10.311,0,15.605c-4.679,0-9.084,0-13.91,0
		C272.433,349.618,272.433,344.6,272.433,339.102z"/>
</g>
</svg>
