<?xml version="1.0" encoding="utf-8"?>
<!-- Generator: Adobe Illustrator 16.0.3, SVG Export Plug-In . SVG Version: 6.00 Build 0)  -->
<!DOCTYPE svg PUBLIC "-//W3C//DTD SVG 1.1//EN" "http://www.w3.org/Graphics/SVG/1.1/DTD/svg11.dtd">
<svg version="1.1" id="圖層_1" xmlns="http://www.w3.org/2000/svg" xmlns:xlink="http://www.w3.org/1999/xlink" x="0px" y="0px"
	 width="263.899px" height="110px" viewBox="330.145 161.922 263.899 110" enable-background="new 330.145 161.922 263.899 110"
	 xml:space="preserve">
<g>
	<g>
		<path fill="#FFFFFF" d="M405.817,203.442c0.248-0.659,0.495-1.317,0.742-1.976l-0.023,0.021c2.175-0.023,4.35-0.063,6.526-0.068
			c4.507-0.011,9.015-0.059,13.521,0.034c1.192,0.024,1.583-0.388,1.887-1.448c2.64-9.235,5.335-18.456,8.011-27.682
			c0.083-0.285,0.135-0.578,0.234-1.011c-1.209-0.077-2.343-0.148-3.711-0.235c0.859-2.182,0.803-4.398,2.963-6.098
			c2.798-2.2,5.609-3.285,9.142-2.907c2.113,0.227,4.27,0.042,6.614,0.042c-3.634,13.123-7.229,26.108-10.876,39.283
			c1.5,0,2.791,0,4.233,0c-0.678,3.008-1.318,5.846-1.986,8.81c3.48,0,6.83,0,10.3,0c0.67-2.924,1.354-5.903,2.047-8.926
			c0.462,0,0.847-0.063,1.206,0.01c2.38,0.479,3.746-0.662,5.12-2.543c6.58-9.004,13.322-17.89,20.003-26.818
			c0.172-0.23,0.313-0.484,0.511-0.795c-3.172-0.565-6.067-0.352-8.292,2.143c-0.473,0.529-0.448,1.475-0.761,2.181
			c-0.145,0.326-0.543,0.763-0.832,0.767c-3.342,0.049-6.685,0.025-10.027,0.015c-0.104-0.001-0.209-0.066-0.426-0.14
			c0.472-2.115,0.944-4.23,1.415-6.347c0.505-2.271,1.043-4.536,1.494-6.818c0.149-0.756,0.487-0.962,1.209-0.951
			c3.415,0.051,6.831,0.091,10.246,0.078c6.344-0.025,12.687-0.091,19.029-0.139c0.41-0.003,0.82,0,1.366,0
			c-0.042,0.408-0.043,0.73-0.112,1.037c-0.612,2.747-1.21,5.498-1.877,8.231c-0.164,0.67-0.475,1.35-0.877,1.909
			c-6.539,9.082-13.103,18.145-19.658,27.213c-0.169,0.234-0.302,0.495-0.558,0.921c0.906,0,1.666,0,2.643,0
			c-0.67,3.086-1.301,5.992-1.951,8.992c5.151,0,10.202,0,15.284,0c0.313-0.669,0.103-1.045-0.524-1.435
			c-1.919-1.193-2.362-3.093-1.266-5.059c0.109-0.196,0.208-0.414,0.365-0.566c1.541-1.485,2.539-3.211,2.589-5.421
			c0.008-0.35,0.342-0.692,0.747-0.988c0.075,0.761,0.15,1.521,0.23,2.331c0.734-0.095,1.199-0.123,1.111-1.128
			c-0.067-0.769,0.272-1.71,0.734-2.358c1.021-1.432,2.165-2.79,3.382-4.062c1.725-1.8,3.57-3.484,5.344-5.239
			c0.724-0.716,1.43-0.777,2.155-0.063c0.453,0.447,0.881,0.924,1.285,1.416c1.076,1.312,1.981,1.388,3.244,0.293
			c1.86-1.614,2.892-3.614,3.396-6.05c0.292-1.411,1.162-2.734,1.924-4.007c0.843-1.41,1.258-2.809,0.565-4.37
			c-0.189-0.427-0.501-0.8-0.83-1.31c0.573-0.263,1.134-0.54,1.711-0.779c3.055-1.27,6.149-2.466,8.442-5.022
			c0.15-0.168,0.47-0.288,0.694-0.267c1.342,0.128,2.681,0.294,4.018,0.468c0.557,0.073,0.613,0.391,0.61,0.951
			c-0.012,2.152-1.283,3.057-3.16,3.404c-1.514,0.281-3.035,0.516-4.557,0.748c-2.433,0.371-3.958,1.675-4.362,4.166
			c-0.317,1.962-0.553,3.942-0.993,5.877c-0.396,1.735-0.982,3.433-1.565,5.118c-0.229,0.658-0.679,1.24-1.145,2.063
			c2.016-0.503,3.762-0.928,5.036-2.548c0.964-1.225,2.1-2.347,3.3-3.345c2.095-1.742,3.527-3.696,2.845-6.626
			c0.2-0.08,0.364-0.182,0.54-0.212c3.247-0.542,5.408-2.43,6.73-5.381c0.229-0.513,0.591-0.977,0.762-1.505
			c0.948-2.932,3.436-3.47,6.189-4.028c-0.79,2.563-1.743,4.876-3.431,6.761c-1.244,1.39-2.678,2.626-4.121,3.816
			c-2.085,1.721-3.798,3.704-5.113,6.076c-3.64,6.568-8.521,11.862-15.503,15.012c-0.902,0.407-1.577,1.307-2.378,1.952
			c-0.792,0.638-1.646,1.202-2.405,1.875c-0.844,0.748-1.61,1.582-2.411,2.38c0.1,0.17,0.199,0.341,0.298,0.512
			c1.245-0.366,2.498-0.707,3.732-1.107c0.563-0.184,1.073-0.536,1.639-0.707c0.304-0.092,0.936-0.034,0.969,0.084
			c0.121,0.426,0.206,0.984,0.021,1.348c-0.5,0.977-2.017,1.078-2.97,0.532c-0.481-0.276-1.356-0.299-1.846-0.041
			c-1.188,0.623-2.324,1.394-3.352,2.258c-1.593,1.342-3.271,1.729-5.213,0.935c-0.414-0.17-0.881-0.209-1.297-0.376
			c-0.985-0.398-1.723-0.076-2.171,0.805c-0.477,0.936-0.844,1.924-2.147,2.087c0.136,0.091,0.267,0.248,0.41,0.262
			c1.246,0.119,1.377,0.845,0.925,1.786c-0.155,0.324-0.562,0.749-0.855,0.751c-6.723,0.039-13.445,0.026-20.169,0.018
			c-0.104,0-0.208-0.061-0.407-0.122c0.598-2.889,1.193-5.77,1.818-8.796c-1.324,0-2.473,0-3.898,0
			c0.318-0.498,0.489-0.799,0.69-1.077c7.14-9.898,14.288-19.789,21.407-29.702c0.421-0.586,0.717-1.311,0.892-2.016
			c0.521-2.107,0.954-4.237,1.458-6.521c-0.507-0.025-0.896-0.063-1.286-0.063c-4.732-0.006-9.465-0.023-14.196,0.014
			c-0.56,0.005-1.181,0.214-1.663,0.507c-1.309,0.795-2.558,1.686-4.025,2.67c0.211-1.124,0.378-2.021,0.574-3.066
			c-1.898,0-3.653-0.014-5.407,0.018c-0.194,0.004-0.516,0.226-0.557,0.398c-0.733,3.131-1.432,6.271-2.187,9.619
			c1.973,0,3.756,0.021,5.538-0.03c0.203-0.006,0.407-0.417,0.587-0.657c0.384-0.516,0.684-1.114,1.138-1.554
			c2.7-2.61,5.916-3.575,9.651-3.106c1.537,0.193,3.118,0.032,4.964,0.032c-0.604,0.82-1.015,1.385-1.433,1.943
			c-7.691,10.284-15.404,20.552-23.05,30.869c-0.912,1.23-1.82,2.008-3.397,1.691c-1.115-0.224-1.558,0.29-1.771,1.376
			c-0.446,2.282-1.04,4.535-1.564,6.802c-0.116,0.504-0.246,0.882-0.918,0.877c-4.693-0.03-9.386-0.022-14.08-0.032
			c-0.142,0-0.284-0.047-0.559-0.096c0.653-2.907,1.296-5.771,1.971-8.78c-1.525,0-2.863,0-4.365,0
			c3.623-13.123,7.205-26.095,10.83-39.226c-0.495-0.031-0.883-0.071-1.271-0.076c-0.789-0.012-1.587,0.073-2.364-0.019
			c-2.742-0.323-5.121,0.299-7.232,2.195c-0.837,0.753-1.279,1.484-1.341,2.644c1.181,0.071,2.327,0.14,3.608,0.216
			c-0.118,0.488-0.197,0.879-0.307,1.26c-3.081,10.67-6.173,21.337-9.231,32.014c-0.226,0.786-0.555,1.058-1.388,1.054
			c-7.324-0.033-14.648-0.017-21.972-0.024c-0.407,0-0.814-0.089-1.222-0.136L405.817,203.442z M501.637,187.603
			c-1.151,1.266-2.202,2.386-3.2,3.553c-0.161,0.188-0.231,0.689-0.102,0.856c0.766,0.989,1.604,1.923,2.502,2.974
			c1.354-1.448,2.521-2.694,3.754-4.013C503.633,189.88,502.754,188.878,501.637,187.603z M499.309,205.746
			c0.173,0.15,0.474,0.629,0.74,0.609c1.286-0.092,2.411-1.812,1.957-2.998c-0.143-0.371-0.681-0.87-0.983-0.836
			c-0.444,0.051-1.022,0.441-1.215,0.844C499.515,203.984,499.501,204.736,499.309,205.746z M499.14,196.786
			c-1.046-1.218-1.983-2.31-2.954-3.441c-1.46,1.883,0.975,3.061,0.811,4.945C497.861,197.684,498.514,197.226,499.14,196.786z
			 M506.649,195.262c0.442-1.083,0.843-2.066,1.244-3.05c-0.114-0.082-0.228-0.164-0.343-0.247
			c-1.099,0.797-2.199,1.594-3.494,2.532C505.029,194.784,505.83,195.021,506.649,195.262z"/>
		<path fill="#FFFFFF" d="M375.343,203.537c-1.206,3.248-3.182,5.512-5.98,7.037c-3.465,1.888-7.159,2.404-10.994,1.471
			c-3.597-0.877-5.667-3.702-5.428-7.238c0.027-0.4,0.136-0.795,0.209-1.21c1.049,0,2.011,0,2.951,0
			c0.05,0.122,0.107,0.192,0.1,0.255c-0.451,3.896,1.51,6.233,5.44,6.479c4.629,0.289,8.283-1.904,10.308-6.127
			c0.146-0.305,0.612-0.589,0.962-0.636C373.639,203.47,374.389,203.537,375.343,203.537z"/>
		<path fill="#FFFFFF" d="M375.768,201.381c-1.025,0-1.984,0-2.942,0c-0.046-0.163-0.11-0.27-0.101-0.37
			c0.323-3.705-2.412-5.88-6.427-5.741c-4.006,0.138-7.242,1.762-9.101,5.557c-0.14,0.283-0.577,0.55-0.902,0.587
			c-0.764,0.086-1.544,0.027-2.443,0.027c0.601-1.797,1.59-3.162,2.823-4.299c3.763-3.469,8.228-4.661,13.229-3.724
			C374.163,194.216,376.403,197.272,375.768,201.381z"/>
		<path fill="#FFFFFF" d="M334.605,209.99c4.736,0,9.473,0,14.214,0c-0.107,2.046-0.198,2.139-1.957,2.139
			c-5.102,0-10.204,0-15.306,0c-0.442,0-0.884,0-1.411,0c0.177-1.245,0.377-2.25,1.418-3.006c1.88-1.366,3.785-2.739,5.45-4.346
			c1.496-1.442,3.136-1.236,5.226-1.136c-2.74,2.159-5.234,4.124-7.727,6.089C334.543,209.818,334.574,209.904,334.605,209.99z"/>
		<path fill="#FFFFFF" d="M348.318,195.602c-4.085,0-8.171,0-12.256,0c0.017-2.023,0.183-2.196,2.04-2.196
			c4.469-0.001,8.937-0.001,13.405-0.001c0.446,0,0.893,0,1.435,0c-0.11,1.192-0.254,2.169-1.28,2.901
			c-1.648,1.178-3.327,2.358-4.764,3.771c-1.546,1.519-3.292,1.47-5.468,1.28c2.457-1.942,4.719-3.732,6.982-5.522
			C348.38,195.757,348.349,195.68,348.318,195.602z"/>
		<path fill="#FFFFFF" d="M406.559,201.466c-1,0-2,0-3.169,0c0.715-2.635,1.366-5.087,2.068-7.524
			c0.065-0.227,0.46-0.512,0.704-0.512c5.286-0.021,10.571-0.005,15.856,0.009c0.064,0.001,0.127,0.065,0.19,0.102
			c-0.091,1.969-0.209,2.085-2.088,2.084c-3.674,0-7.348,0.021-11.021-0.019c-0.778-0.008-1.131,0.207-1.304,0.992
			c-0.362,1.643-0.833,3.261-1.259,4.89L406.559,201.466z"/>
		<path fill="#FFFFFF" d="M405.789,203.41c-0.309,1.375-0.603,2.753-0.931,4.123c-0.181,0.756-0.417,1.498-0.679,2.421
			c4.796,0,9.423,0,14.045,0c0.042,1.96-0.15,2.173-1.844,2.173c-4.805,0.002-9.609,0.001-14.415,0.002c-0.407,0-0.813,0-1.427,0
			c0.293-1.088,0.553-2.043,0.808-3c0.414-1.56,0.849-3.113,1.224-4.682c0.168-0.702,0.497-0.985,1.241-0.925
			c0.663,0.055,1.34-0.045,2.008-0.079C405.817,203.442,405.789,203.41,405.789,203.41z"/>
		<path fill="#FFFFFF" d="M387.42,203.544c1.06,0,2.026-0.05,2.982,0.031c0.283,0.023,0.618,0.364,0.788,0.646
			c0.716,1.182,1.38,2.397,2.206,3.851c0.471-1.645,0.875-3.05,1.286-4.484c0.938,0,1.831,0,2.895,0
			c-0.477,1.794-0.934,3.515-1.39,5.235c-0.096,0.362-0.188,0.727-0.288,1.088c-0.653,2.37-0.655,2.389-3.155,2.195
			c-0.336-0.025-0.784-0.285-0.95-0.57c-1.432-2.468-2.811-4.965-4.201-7.456C387.525,203.959,387.505,203.814,387.42,203.544z"/>
		<path fill="#FFFFFF" d="M383.875,197.509c-0.302,1.118-0.598,1.964-0.748,2.835c-0.15,0.868-0.542,1.228-1.432,1.113
			c-0.545-0.07-1.105-0.014-1.829-0.014c0.475-1.779,0.908-3.399,1.34-5.02c0.068-0.254,0.138-0.507,0.208-0.761
			c0.656-2.402,0.657-2.417,3.122-2.238c0.313,0.022,0.742,0.227,0.888,0.479c1.347,2.343,2.644,4.715,3.949,7.081
			c0.047,0.085,0.022,0.21,0.042,0.452c-0.994,0-1.958,0.053-2.911-0.031c-0.28-0.024-0.601-0.387-0.776-0.672
			C385.122,199.753,384.573,198.738,383.875,197.509z"/>
		<path fill="#FFFFFF" d="M376.983,212.123c0.748-2.782,1.446-5.419,2.182-8.045c0.061-0.216,0.375-0.493,0.589-0.511
			c0.773-0.062,1.554-0.024,2.486-0.024c-0.764,2.824-1.478,5.496-2.226,8.156c-0.051,0.18-0.357,0.393-0.556,0.404
			C378.681,212.151,377.9,212.123,376.983,212.123z"/>
		<path fill="#FFFFFF" d="M395.229,201.396c0.702-2.582,1.354-5.032,2.058-7.469c0.064-0.223,0.447-0.474,0.703-0.499
			c0.701-0.068,1.412-0.023,2.34-0.023c-0.736,2.747-1.435,5.356-2.141,7.991C397.213,201.396,396.323,201.396,395.229,201.396z"/>
		<path fill="#FFFFFF" d="M494.726,186.841c-0.598,0.54-0.981,1.163-1.422,1.206c-0.416,0.041-0.925-0.491-1.325-0.847
			c-0.249-0.221-0.465-0.563-0.532-0.886c-0.095-0.445-0.219-1.049-0.004-1.36c0.37-0.535,0.885-0.344,1.289,0.165
			c0.161,0.203,0.491,0.265,0.696,0.445C493.816,185.906,494.168,186.286,494.726,186.841z"/>
		<path fill="#FFFFFF" d="M497.694,180.406c-0.624,0.439-1.001,0.903-1.385,0.909c-0.289,0.005-0.872-0.647-0.815-0.886
			c0.092-0.389,0.56-0.859,0.946-0.946C496.708,179.424,497.109,179.95,497.694,180.406z"/>
		<path fill="#FFFFFF" d="M491.894,190.85c-0.738,0.396-1.165,0.74-1.637,0.822c-0.19,0.033-0.479-0.511-0.725-0.791
			c0.401-0.317,0.766-0.729,1.222-0.903C490.928,189.911,491.31,190.386,491.894,190.85z"/>
		<path fill="#FFFFFF" d="M492.378,180.1c-0.475,0.412-0.778,0.676-1.082,0.939c-0.207-0.261-0.616-0.562-0.573-0.771
			c0.067-0.331,0.394-0.681,0.704-0.854C491.543,179.351,491.923,179.76,492.378,180.1z"/>
		<path fill="#FFFFFF" d="M491.244,194.415c-0.473,0.317-0.736,0.563-1.046,0.664c-0.103,0.033-0.495-0.406-0.466-0.454
			c0.172-0.283,0.393-0.586,0.675-0.732C490.523,193.833,490.832,194.148,491.244,194.415z"/>
		<path fill="#FFFFFF" d="M499.709,177.725c-0.299-0.391-0.594-0.612-0.615-0.859c-0.016-0.179,0.383-0.581,0.502-0.547
			c0.254,0.071,0.55,0.329,0.625,0.574C500.271,177.055,499.969,177.325,499.709,177.725z"/>
	</g>
	<g>
		<path fill="#FFFFFF" d="M403.188,230.088c0.556,1.974-0.501,2.198-1.862,2.278c-6.301,0.366-12.597,0.828-18.901,1.124
			c-1.604,0.074-2.416,0.569-2.878,2.148c-0.914,3.126-2.042,6.189-3.086,9.292c0.428,0.28,0.686,0.596,0.947,0.598
			c4.868,0.042,9.754,0.268,14.594-0.103c1.156-0.089,2.537-2.023,3.141-3.404c0.868-1.984,1.839-2.595,3.75-1.596
			c-0.934,5.642-3.03,7.481-8.538,7.494c-4.395,0.009-8.79,0.019-13.184-0.007c-4.182-0.022-4.78-0.916-3.399-4.938
			c0.98-2.854,1.95-5.711,3.017-8.834c-2.278,0-4.285,0-6.291,0c-0.152-0.226-0.303-0.45-0.455-0.674
			c0.575-0.517,1.212-1.532,1.715-1.471c4.59,0.567,7.134-1.25,7.897-5.888c0.1-0.605,1.901-0.931,2.915-1.384
			c0.145,0.197,0.289,0.396,0.433,0.596c-0.578,1.865-1.155,3.729-1.872,6.041C388.68,230.927,395.94,230.507,403.188,230.088z"/>
		<path fill="#FFFFFF" d="M431.632,239.157c-3.792,0-7.601,0-11.41,0c-0.118-0.25-0.237-0.502-0.355-0.752
			c0.672-0.425,1.329-1.183,2.019-1.216c2.951-0.137,5.911-0.05,8.868-0.064c2.216-0.011,2.216-0.024,2.731-2.614
			c-4.161,0-8.277,0-12.392,0c-0.112-0.265-0.225-0.528-0.337-0.792c0.619-0.392,1.208-1.049,1.863-1.124
			c1.499-0.17,3.043-0.186,4.546-0.03c2.213,0.229,3.027-0.784,3.036-3.072c-2.134,0-4.179,0-6.224,0
			c-0.13-0.231-0.259-0.464-0.388-0.696c0.588-0.424,1.134-1.113,1.772-1.213c1.249-0.193,2.55-0.096,3.827-0.048
			c1.193,0.045,2.034-0.107,2.625-1.454c0.291-0.661,1.654-0.852,2.914-1.431c-0.108,1.293-0.158,1.896-0.234,2.819
			c2.436,0,4.773,0,7.109,0c0.103,0.284,0.205,0.569,0.308,0.854c-0.66,0.372-1.29,0.979-1.986,1.069
			c-1.336,0.172-2.72,0.153-4.067,0.025c-1.991-0.189-3.036,0.552-3.034,2.987c2.771,0,5.565,0,8.378,0
			c0.164,2.275-1.17,2.147-2.348,2.048c-1.795-0.148-2.724,0.53-2.62,2.511c0.993,0.101,2.002,0.202,3.01,0.305
			c0.119,0.213,0.238,0.425,0.356,0.637c-0.671,0.423-1.385,1.256-2.007,1.193c-2.053-0.207-2.724,0.816-3.291,2.558
			c-2.044,6.284-3.75,7.231-10.414,6.134c-0.467-0.076-0.928-0.183-1.753-0.916c0.644-0.407,1.391-1.27,1.915-1.15
			c6.539,1.49,5.998-0.202,7.815-5.947C431.885,239.72,431.817,239.636,431.632,239.157z"/>
		<path fill="#FFFFFF" d="M474.244,246.286c-0.622,0.345-1.241,0.987-1.864,0.991c-9.354,0.049-18.708,0.019-28.062-0.008
			c-0.305-0.001-0.609-0.146-1.221-0.304c0.253-0.944,0.445-1.844,0.736-2.709c1.581-4.693,3.225-9.367,4.745-14.079
			c0.246-0.76-0.165-1.713,0-2.521c0.12-0.585,0.603-1.193,1.092-1.568c0.305-0.233,0.927-0.056,1.407-0.056
			c9.194,0.001,18.389,0.003,27.583,0.005c0.771,0,1.539,0,2.31,0c0.077,0.312,0.154,0.624,0.232,0.937
			c-0.835,0.302-1.668,0.857-2.506,0.863c-7.995,0.064-15.991,0.083-23.985-0.003c-1.704-0.018-2.522,0.463-3.049,2.159
			c-1.559,5.013-3.33,9.96-5.146,15.314c9.373,0,18.358,0,27.343,0C473.988,245.634,474.115,245.96,474.244,246.286z"/>
		<path fill="#FFFFFF" d="M570.213,247.992c1.425-4.198,2.639-8.067,4.122-11.83c0.226-0.575,1.722-0.993,2.573-0.908
			c2.143,0.213,3.204-0.531,3.668-2.654c0.408-1.857,1.328-3.601,1.784-5.452c0.471-1.916,1.484-2.468,3.43-1.815
			c-0.14,0.8-0.284,1.621-0.478,2.729c2.843,0,5.585,0,8.329,0c0.134,0.263,0.269,0.525,0.402,0.788
			c-0.646,0.459-1.243,1.191-1.947,1.314c-1.239,0.218-2.544,0.064-3.821,0.064c-4.503,0.003-4.503,0.003-5.271,4.965
			c2.619,0,5.204,0,8.166,0c-1.428,4.188-2.64,8.053-4.139,11.805c-0.217,0.546-2,1.021-2.709,0.716
			c-2.669-1.145-8.561-1.215-11.282,0.037C572.331,248.076,571.395,247.908,570.213,247.992z M587.461,237.221
			c-3.479,0-6.416-0.029-9.351,0.03c-0.485,0.009-1.263,0.289-1.396,0.638c-0.827,2.172-1.509,4.398-2.338,6.906
			c3.424,0,6.359,0.042,9.292-0.039c0.514-0.014,1.305-0.425,1.473-0.848C585.955,241.869,586.601,239.762,587.461,237.221z"/>
		<path fill="#FFFFFF" d="M513.203,238.526c-1.048,3.102-1.871,5.834-2.945,8.465c-0.203,0.495-1.423,0.852-2.144,0.807
			c-2.149-0.134-4.276-0.632-6.425-0.742c-2.702-0.138-5.422-0.134-8.123,0.012c-1.478,0.079-2.933,0.575-4.863,0.981
			c1.08-3.183,1.915-5.826,2.908-8.407c0.189-0.494,0.994-1.062,1.521-1.068C499.656,238.5,506.181,238.526,513.203,238.526z
			 M493.779,241.351c0.078,0.188,0.156,0.376,0.235,0.563c4.772,0,9.547,0.023,14.319-0.04c0.417-0.005,0.827-0.569,1.239-0.875
			c-0.08-0.204-0.159-0.408-0.239-0.611c-4.773,0-9.549-0.025-14.322,0.041C494.596,240.433,494.189,241.03,493.779,241.351z
			 M508.48,244.084c-4.431-0.923-14.61-0.474-15.584,0.626C495.724,245.651,507.094,245.326,508.48,244.084z"/>
		<path fill="#FFFFFF" d="M539.501,235.309c-0.926,2.732-1.91,5.674-2.922,8.605c-0.974,2.826-2.266,3.818-5.285,3.933
			c-1.11,0.042-2.233-0.106-3.34-0.251c-0.937-0.124-1.857-0.369-2.803-0.564c-0.031-1.86,0.688-2.463,2.354-1.871
			c0.598,0.212,1.244,0.288,1.868,0.427c2.311,0.514,3.688-0.17,4.441-2.642c1.603-5.269,3.582-10.422,5.223-15.68
			c0.629-2.011,1.624-2.507,3.562-1.796c-2.369,8.526,2.728,13.866,8.169,19.034c-1.774,1.658-3.266,1.558-4.65-0.321
			C543.957,241.245,541.759,238.334,539.501,235.309z"/>
		<path fill="#FFFFFF" d="M414.725,226.226c-0.438,1.52-0.717,2.486-0.999,3.462c2.504,0.991,2.568-1.036,2.928-2.333
			c0.515-1.858,1.329-2.833,3.461-1.965c-0.41,1.42-0.82,2.842-1.267,4.394c1.117,0.114,2.049,0.21,3.836,0.393
			c-1.004,0.837-1.6,1.716-2.046,1.646c-3.067-0.479-3.282,1.698-3.741,3.629c1.064,0.127,2.123,0.251,3.41,0.404
			c-0.355,0.656-0.407,0.888-0.504,0.909c-4.997,1.102-5.252,5.581-6.6,9.269c-0.808,2.212-0.78,2.223-3.417,1.83
			c0.781-2.42,1.553-4.812,2.321-7.189c-2.155-0.969-4.163,2.606-6.516-0.249c4.09-1.695,9.497-1.804,9.028-8.313
			c-1.296-0.624-2.342-0.191-3.24,1.263c-0.819,1.327-1.655,2.926-3.65,1.817c1.407-2.725,2.717-5.48,4.271-8.092
			C412.318,226.566,413.55,226.575,414.725,226.226z"/>
		<path fill="#FFFFFF" d="M425.583,268.025c1.616-4.542,2.989-8.501,4.469-12.419c0.165-0.438,0.932-0.904,1.429-0.915
			c2.463-0.049,4.943-0.097,7.39,0.14c2.428,0.234,3.572,1.917,3.322,4.354c-0.386,3.768-3.099,7.405-6.742,8.122
			C432.404,267.906,429.216,267.791,425.583,268.025z M429.729,265.483c5.792,0.644,8.5-1.109,8.962-5.792
			c0.084-0.851-0.917-2.493-1.587-2.59c-1.468-0.21-3.878-0.184-4.414,0.675C431.299,260.008,430.711,262.743,429.729,265.483z"/>
		<path fill="#FFFFFF" d="M511.948,263.079c1.541,2.874,4.05,3.594,6.152,2.1c0.467-0.33,0.999-1.004,0.963-1.479
			c-0.031-0.427-0.741-0.976-1.261-1.157c-1.35-0.471-2.811-0.643-4.134-1.168c-2.119-0.842-2.497-2.611-1.091-4.425
			c1.902-2.454,7.879-3.53,10.382-1.737c0.612,0.438,0.909,1.394,1.187,2.17c0.066,0.185-0.545,0.88-0.823,0.869
			c-0.871-0.04-1.768-0.21-2.587-0.51c-0.757-0.276-1.47-1.18-2.127-1.11c-1.159,0.124-2.262,0.777-3.388,1.208
			c0.893,0.588,1.762,1.217,2.689,1.741c0.399,0.226,1.003,0.112,1.373,0.363c1.177,0.794,3.146,1.626,3.214,2.559
			c0.091,1.273-0.979,3.045-2.09,3.909c-2.622,2.038-5.848,2.152-8.893,1.157c-0.965-0.315-1.508-1.921-2.243-2.936
			C510.163,264.115,511.055,263.597,511.948,263.079z"/>
		<path fill="#FFFFFF" d="M502.601,258.126c-1.521,3.953-2.632,7.451-4.202,10.729c-1.323,2.762-7.273,3.998-9.889,2.271
			c-0.583-0.387-0.845-1.26-1.254-1.909c0.154-0.224,0.309-0.448,0.463-0.671c1.161,0.289,2.4,0.408,3.469,0.901
			c2.335,1.076,4.148,0.273,4.746-2.394c-1.172,0.263-2.289,0.666-3.428,0.736c-2.764,0.173-4.166-1.665-3.417-4.308
			c1.205-4.255,5.003-6.052,9.346-4.712C499.469,259.091,500.802,258.438,502.601,258.126z M498.03,261.476
			c-0.371-0.325-0.952-1.236-1.712-1.423c-1.829-0.449-4.108,1.617-4.039,3.746c0.022,0.699,0.981,1.807,1.682,1.962
			C495.704,266.147,497.764,264.109,498.03,261.476z"/>
		<path fill="#FFFFFF" d="M502.412,236.266c2.021-0.806,4.044-1.61,6.066-2.417c-0.059-0.284-0.116-0.569-0.175-0.854
			c-1.12-0.099-2.24-0.197-4.123-0.363c1.52-1.553,2.502-3.209,3.936-3.837c1.375-0.602,1.51,0.735,0.725,2.009
			c2.417,0.474,2.475-1.215,3.097-2.804c-1.767-0.084-3.305-0.157-4.844-0.23c-0.104-0.229-0.209-0.457-0.313-0.686
			c0.572-0.35,1.136-0.981,1.718-0.998c3.268-0.098,6.539-0.048,9.809-0.048c0.108,0.213,0.216,0.426,0.324,0.638
			c-0.576,0.397-1.195,1.183-1.721,1.124c-2.216-0.248-2.706,1.12-3.093,2.982c1.271,0.132,2.486,0.258,3.714,0.386
			c-0.295,1.208-0.295,1.208-5.51,1.852c0.09,0.925,0.18,1.853,0.314,3.247c1.388-0.635,2.672-1.221,4.251-1.942
			c-0.275,3.267-2.029,3.853-7.198,3.208c0-0.64,0-1.301,0-1.949c-0.194-0.045-0.357-0.138-0.45-0.093
			c-1.149,0.559-2.312,1.096-3.424,1.724c-1.42,0.803-2.39,0.456-3.024-1.006L502.412,236.266z"/>
		<path fill="#FFFFFF" d="M502.491,236.207c-1.122,0.4-2.226,0.871-3.372,1.188c-1.559,0.428-3.009,0.523-2.646-1.838
			c-2.46,0.082-4.295,3.226-7.399,1.259c2.383-1.247,4.371-2.288,6.36-3.329c-0.053-0.211-0.106-0.42-0.16-0.63
			c-1.297-0.075-2.593-0.15-3.889-0.227c-0.126-0.194-0.251-0.389-0.376-0.582c1.535-1.179,3.07-2.358,4.606-3.537
			c0.211,0.188,0.422,0.378,0.632,0.567c-0.058,0.542-0.116,1.086-0.179,1.679c2.278,0.442,2.332-1.186,2.888-2.745
			c-1.673-0.092-3.142-0.172-4.609-0.252c-0.105-0.194-0.209-0.391-0.313-0.584c0.58-0.378,1.149-1.062,1.742-1.083
			c3.027-0.111,6.06-0.051,9.887-0.051c-0.91,0.919-1.39,1.779-1.79,1.745c-2.156-0.188-2.454,1.285-2.854,2.913
			c0.796,0.119,1.554,0.233,2.553,0.383c-0.722,2.968-3.674,0.654-4.876,2.288c0.334,0.596,0.687,1.226,0.988,1.764
			c1.276-0.286,2.516-0.563,3.755-0.841c0.096,0.253,0.19,0.505,0.287,0.758c-0.435,0.402-0.868,0.806-1.308,1.211
			C502.412,236.266,502.491,236.207,502.491,236.207z"/>
		<path fill="#FFFFFF" d="M330.927,267.189c0.749-0.904,1.367-1.976,2.271-2.68c3.123-2.434,6.348-4.74,9.403-7.646
			c-2.079,0-4.158,0-6.236,0c-0.12-0.289-0.239-0.577-0.357-0.866c0.672-0.454,1.331-1.271,2.021-1.299
			c3.338-0.137,6.685-0.063,10.87-0.063c-1.026,1.308-1.539,2.306-2.342,2.925c-3.328,2.567-6.744,5.021-10.003,8.035
			c2.641,0,5.282,0,7.923,0c0.14,0.241,0.28,0.482,0.419,0.725c-0.56,0.5-1.105,1.415-1.681,1.434
			c-3.95,0.128-7.907,0.066-11.862,0.066C331.21,267.611,331.068,267.4,330.927,267.189z"/>
		<path fill="#FFFFFF" d="M454.001,235.048c-0.095-0.482-0.138-0.565-0.121-0.633c1.296-5.084,1.297-5.085,6.564-5.088
			c5.091-0.002,10.182,0,15.792,0c-0.646,1.872-1.134,3.49-1.791,5.038c-0.149,0.354-0.878,0.649-1.342,0.653
			C466.739,235.061,460.374,235.048,454.001,235.048z M457.1,232.677c0.127,0.198,0.256,0.397,0.384,0.596
			c4.52,0,9.041,0.056,13.558-0.068c0.58-0.016,1.137-0.966,1.704-1.483c-0.138-0.223-0.276-0.443-0.415-0.665
			c-4.514,0-9.028-0.059-13.537,0.071C458.216,231.146,457.664,232.137,457.1,232.677z"/>
		<path fill="#FFFFFF" d="M330.829,236.091c0.706-0.47,1.408-1.342,2.117-1.349c10.437-0.089,20.875-0.061,31.313-0.061
			c0.162,0.219,0.325,0.437,0.487,0.655c-0.657,0.548-1.309,1.566-1.97,1.571c-10.512,0.101-21.025,0.07-31.538,0.07
			C331.101,236.683,330.965,236.387,330.829,236.091z"/>
		<path fill="#FFFFFF" d="M352.751,268.601c-1.389-0.88-3.503-1.486-3.968-2.716c-0.486-1.288,0.189-3.482,1.104-4.734
			c2.006-2.748,5.073-3.5,8.368-2.854c2.499,0.489,3.464,2.523,2.518,4.923C359.677,265.997,356.442,268.032,352.751,268.601z
			 M353.111,266.039c2.786-0.025,4.999-2.072,4.657-4.006c-0.132-0.748-1.327-1.747-2.135-1.849
			c-1.982-0.246-4.262,2.031-3.967,3.926C351.795,264.941,352.79,265.636,353.111,266.039z"/>
		<path fill="#FFFFFF" d="M569.85,268.532c-1.351-0.826-3.449-1.389-3.855-2.548c-0.47-1.335,0.123-3.503,1.02-4.765
			c1.972-2.774,5.041-3.537,8.336-2.947c2.507,0.447,3.532,2.474,2.654,4.862C576.972,265.947,573.567,268.074,569.85,268.532z
			 M570.179,266.024c2.761,0.052,5.05-1.927,4.813-3.883c-0.092-0.756-1.245-1.827-2.049-1.964c-1.959-0.334-4.26,1.861-4.053,3.813
			C568.981,264.829,569.882,265.583,570.179,266.024z"/>
		<path fill="#FFFFFF" d="M536.93,260.987c1.704-2.693,5.7-3.598,8.164-2.562c1.348,0.566,1.442,1.549,1.046,2.744
			c-0.698,2.103-1.401,4.203-2.117,6.348c-2.434,0.157-5.004,0.423-7.572,0.422c-0.709,0-1.852-0.674-2.02-1.26
			c-0.211-0.741,0.102-2.042,0.671-2.506c0.997-0.81,2.33-1.266,3.584-1.681c1.049-0.348,2.207-0.351,3.271-0.661
			c0.421-0.123,0.717-0.669,1.07-1.021c-0.428-0.281-0.856-0.796-1.278-0.791c-0.759,0.013-1.507,0.364-2.269,0.523
			C538.637,260.72,537.781,260.841,536.93,260.987z M542.293,263.397c-0.994,0.099-1.602,0.017-2.068,0.234
			c-0.946,0.443-1.817,1.049-2.72,1.587c0.271,0.346,0.632,1.03,0.8,0.986c1.101-0.289,2.193-0.666,3.211-1.171
			C541.835,264.875,541.915,264.235,542.293,263.397z"/>
		<path fill="#FFFFFF" d="M389.142,265.312c-2.686,2.689-5.378,3.179-8.328,2.417c-1.63-0.422-2.196-1.682-2.019-3.329
			c0.45-4.182,5.446-7.386,9.469-6.055c1.849,0.61,2.313,1.963,2.123,3.761c-0.2,1.89-1.547,1.676-2.816,1.671
			c-1.275-0.005-2.567-0.139-3.817,0.036c-0.657,0.091-1.239,0.723-1.856,1.109c0.752,0.424,1.499,1.169,2.257,1.181
			c0.763,0.013,1.5-0.852,2.318-1.056C387.104,264.891,387.84,265.161,389.142,265.312z M382.327,262.138
			c1.458,0.081,2.221,0.213,2.963,0.138c0.726-0.074,1.429-0.359,2.143-0.552c-0.125-0.427-0.159-1.152-0.39-1.222
			c-0.77-0.229-1.677-0.45-2.404-0.239C383.95,260.462,383.421,261.211,382.327,262.138z"/>
		<path fill="#FFFFFF" d="M473,267.517c0.983-2.767,1.799-5.437,2.925-7.968c0.28-0.63,1.529-0.985,2.394-1.159
			c0.945-0.189,1.964,0.007,2.949-0.02c0.947-0.026,1.909-0.264,2.835-0.16c1.628,0.184,2.466,1.101,1.905,2.814
			c-0.619,1.891-1.099,3.869-2.041,5.59c-0.431,0.786-1.825,1.045-2.783,1.543c-0.15-0.216-0.302-0.432-0.452-0.647
			c0.519-1.49,1.184-2.951,1.5-4.484c0.188-0.92-0.171-1.953-0.282-2.937c-1.133,0.409-2.648,0.502-3.307,1.301
			c-0.968,1.172-1.471,2.808-1.9,4.323C476.191,267.664,475.156,268.332,473,267.517z"/>
		<path fill="#FFFFFF" d="M363.1,267.531c0.986-2.776,1.857-5.503,2.963-8.131c0.233-0.553,1.674-1.229,1.962-1.022
			c1.428,1.029,2.612-0.035,3.895-0.085c1.282-0.051,2.922-0.011,3.756,0.726c0.568,0.501,0.143,2.29-0.069,3.463
			c-0.196,1.083-0.791,2.09-1.047,3.169c-0.461,1.94-1.512,2.681-3.688,1.893c0.487-1.453,1.111-2.897,1.424-4.405
			c0.197-0.948-0.073-1.994-0.133-2.997c-1.194,0.424-2.75,0.524-3.492,1.353c-0.95,1.06-1.372,2.671-1.791,4.111
			C366.342,267.453,365.428,268.369,363.1,267.531z"/>
		<path fill="#FFFFFF" d="M580.279,267.49c0.991-2.772,1.9-5.485,2.967-8.133c0.196-0.487,1.322-1.139,1.529-0.997
			c1.808,1.234,3.421-0.092,5.103-0.227c3.124-0.25,4.077,0.969,3.076,3.991c-0.401,1.213-0.953,2.386-1.252,3.62
			c-0.488,2.019-1.604,2.569-3.671,1.739c0.604-1.741,1.269-3.442,1.759-5.191c0.168-0.6,0.14-1.594-0.229-1.915
			c-0.419-0.365-1.46-0.448-1.979-0.174c-0.861,0.455-1.714,1.173-2.216,1.996c-0.652,1.073-1.075,2.328-1.385,3.559
			C583.516,267.609,582.54,268.311,580.279,267.49z"/>
		<path fill="#FFFFFF" d="M536.124,229.433c-0.585,1.211-0.88,2.005-1.321,2.705c-3.332,5.279-8.109,8.984-13.444,12.006
			c-0.653,0.37-1.773-0.086-2.767-0.527c5.251-3.265,10.389-6.404,14.308-12.041c-3.516,0-6.485,0-9.455,0
			c-0.098-0.22-0.195-0.44-0.293-0.66c0.442-0.494,0.872-1.402,1.33-1.417C528.198,229.382,531.917,229.433,536.124,229.433z"/>
		<path fill="#FFFFFF" d="M462.578,236.555c0.071,0.394,0.114,0.479,0.097,0.549c-1.776,7.184-1.777,7.184-9.094,7.184
			c-1.415,0-2.83,0-4.602,0c0.845-2.485,1.525-4.671,2.359-6.796c0.168-0.429,0.913-0.884,1.403-0.896
			C455.993,236.516,459.249,236.555,462.578,236.555z M459.296,238.573c-5.23-1.022-6.029-0.584-6.627,3.646
			C457.712,243.404,458.538,242.948,459.296,238.573z"/>
		<path fill="#FFFFFF" d="M462.492,244.185c0.872-2.572,1.559-4.752,2.382-6.881c0.141-0.366,0.853-0.714,1.308-0.723
			c3.253-0.062,6.509-0.032,10.089-0.032c-0.81,2.419-1.473,4.535-2.249,6.608c-0.158,0.424-0.73,0.973-1.125,0.983
			C469.578,244.218,466.257,244.185,462.492,244.185z M466.155,242.233c5.557,0.668,5.682,0.597,6.515-3.608
			C467.732,237.376,466.825,237.86,466.155,242.233z"/>
		<path fill="#FFFFFF" d="M555.686,245.203c2.036-0.291,4.105-0.444,6.094-0.931c0.959-0.234,2.075-0.899,2.582-1.707
			c1.814-2.899,3.488-5.897,5.032-8.95c0.75-1.482,1.529-2.151,3.409-1.098c-1.841,3.425-3.693,6.872-5.703,10.609
			c0.759-0.112,1.243-0.322,1.625-0.203c0.426,0.133,0.864,0.508,1.078,0.897c0.079,0.144-0.419,0.862-0.73,0.925
			c-4.063,0.802-8.132,1.578-12.224,2.218c-0.444,0.069-1.027-0.759-1.547-1.17C555.43,245.597,555.559,245.401,555.686,245.203z"/>
		<path fill="#FFFFFF" d="M416.448,257.103c-2.545,0-4.477,0-6.408,0c-0.125-0.23-0.25-0.462-0.373-0.692
			c0.587-0.529,1.153-1.486,1.766-1.517c3.083-0.156,6.179-0.072,10.062-0.072c-0.997,1.198-1.541,1.868-2.103,2.523
			c-2.625,3.064-5.204,6.171-7.918,9.153c-0.695,0.764-1.827,1.13-2.983,1.362C409.739,263.384,412.942,260.523,416.448,257.103z"/>
		<path fill="#FFFFFF" d="M454.427,267.954c-0.467-3.412-0.872-6.372-1.272-9.295c2.343-0.841,3.456-0.291,3.416,2.072
			c-0.018,1.091,0.146,2.187,0.244,3.494c3.075-1.546,3.445-6.362,8.406-5.859c-2.796,3.284-5.219,6.271-7.835,9.077
			C456.893,267.972,455.625,267.774,454.427,267.954z"/>
		<path fill="#FFFFFF" d="M396.772,267.522c0.979-2.814,1.958-5.628,3.083-8.863c-1.564,0.5-2.72,0.869-3.894,1.243
			c-0.049-1.975,5.839-5.531,8.331-4.95c-1.398,3.898-2.682,7.825-4.271,11.623c-0.326,0.778-1.797,1.079-2.739,1.6
			C397.111,267.956,396.942,267.74,396.772,267.522z"/>
		<path fill="#FFFFFF" d="M532.779,255.58c-0.21,0.762-0.422,1.523-0.659,2.386c0.547,0.203,1.044,0.389,2.149,0.801
			c-1.344,0.977-2.652,1.541-3.344,2.533c-0.786,1.131-1.022,2.645-1.383,3.664c0.576,0.956,0.984,1.632,1.392,2.309
			c-1.191,0.219-2.407,0.663-3.565,0.544c-0.454-0.047-1.116-1.374-1.082-2.089c0.053-1.072,0.754-2.099,0.954-3.186
			c0.146-0.794-0.086-1.653-0.124-2.483c-0.016-0.368-0.117-0.918,0.076-1.081c1.635-1.38,3.329-2.691,5.006-4.022
			C532.393,255.163,532.586,255.371,532.779,255.58z"/>
		<path fill="#FFFFFF" d="M555.804,255.547c-0.22,0.745-0.438,1.489-0.699,2.373c0.585,0.243,1.124,0.469,1.837,0.767
			c-0.326,0.529-0.575,1.337-0.872,1.355c-3.087,0.185-2.521,2.984-3.414,4.703c-0.134,0.259,0.174,0.815,0.386,1.17
			c0.262,0.438,0.636,0.809,0.961,1.208c-0.521,0.285-1.013,0.729-1.567,0.827c-2.97,0.524-3.712-0.477-2.901-3.399
			c0.437-1.568,2.164-3.114,0.44-4.93c-0.1-0.104,0.093-0.684,0.302-0.85c1.628-1.291,3.293-2.536,4.948-3.795
			C555.416,255.167,555.61,255.357,555.804,255.547z"/>
		<path fill="#FFFFFF" d="M560.995,229.084c0.755-0.342,1.485-0.895,2.268-0.982c1.926-0.216,4.232,0.66,4.896-2.373
			c0.085-0.384,1.595-0.457,2.74-0.75c-0.163,1.208-0.265,1.959-0.411,3.047c1.806,0,3.57,0,5.336,0
			c0.105,0.236,0.211,0.474,0.318,0.711c-0.56,0.465-1.108,1.32-1.68,1.336c-4.359,0.112-8.722,0.062-13.084,0.062
			C561.25,229.784,561.123,229.435,560.995,229.084z"/>
		<path fill="#FFFFFF" d="M563.509,258.644c-0.969,2.737-1.799,5.537-3,8.168c-0.32,0.703-1.777,0.887-2.713,1.31
			c-0.162-0.215-0.324-0.431-0.486-0.646c0.985-2.734,1.834-5.531,3.048-8.159c0.324-0.703,1.767-0.889,2.695-1.312
			C563.205,258.218,563.357,258.43,563.509,258.644z"/>
		<path fill="#FFFFFF" d="M471.539,258.716c-0.955,2.67-1.772,5.402-2.949,7.97c-0.341,0.743-1.714,1.013-2.612,1.499
			c-0.208-0.214-0.416-0.429-0.624-0.644c1.022-2.853,1.93-5.758,3.159-8.519c0.256-0.575,1.7-0.622,2.597-0.911
			C471.253,258.313,471.396,258.514,471.539,258.716z"/>
		<path fill="#FFFFFF" d="M443.644,267.461c0.981-2.749,1.826-5.561,3.039-8.203c0.311-0.677,1.785-0.821,2.725-1.211
			c0.133,0.213,0.267,0.427,0.4,0.639c-0.969,2.747-1.799,5.556-3.005,8.194c-0.311,0.68-1.809,0.818-2.76,1.206
			C443.909,267.878,443.776,267.669,443.644,267.461z"/>
		<path fill="#FFFFFF" d="M561.532,232.41c0.867,0,1.626,0,2.767,0c-0.827,3.271-1.478,6.362-2.462,9.345
			c-0.232,0.706-1.588,1.043-2.426,1.55c-0.124-0.205-0.249-0.411-0.372-0.616C559.855,239.324,560.67,235.961,561.532,232.41z"/>
		<path fill="#FFFFFF" d="M488.828,238.448c-1.741,5.304-6.585,9.511-9.054,8.392c2.088-2.619,4.133-5.331,6.373-7.871
			C486.589,238.467,487.779,238.627,488.828,238.448z"/>
		<path fill="#FFFFFF" d="M544.699,233.69c2.772-1.932,5.327-3.794,7.986-5.494c0.526-0.337,1.452-0.049,2.515-0.049
			C552.604,232.004,546.535,235.171,544.699,233.69z"/>
		<path fill="#FFFFFF" d="M492.493,228.629c-2.748,2.76-3.83-0.3-5.536-1.271C489.131,225.076,489.752,225.22,492.493,228.629z"/>
		<path fill="#FFFFFF" d="M425.893,243.119c-2.913,2.715-3.504-0.711-5.093-1.563C422.933,239.43,423.481,239.603,425.893,243.119z"
			/>
		<path fill="#FFFFFF" d="M489.61,234.504c-2.274,1.46-2.274,1.46-5.393-1.3C486.178,231.151,487.262,231.405,489.61,234.504z"/>
		<path fill="#FFFFFF" d="M472.695,254.958c-0.059,2.299-1.552,2.005-3.058,1.784C469.875,254.426,469.943,254.386,472.695,254.958z
			"/>
		<path fill="#FFFFFF" d="M564.67,254.784c-0.148,2.645-1.749,2.107-3.255,1.922C561.429,254.288,562.92,254.497,564.67,254.784z"/>
		<path fill="#FFFFFF" d="M447.75,256.591c0.004-2.347,1.551-2.016,3.055-1.849C450.608,257.058,450.544,257.096,447.75,256.591z"/>
	</g>
</g>
</svg>
