<?xml version="1.0" encoding="utf-8"?>
<!-- Generator: Adobe Illustrator 16.0.3, SVG Export Plug-In . SVG Version: 6.00 Build 0)  -->
<!DOCTYPE svg PUBLIC "-//W3C//DTD SVG 1.1//EN" "http://www.w3.org/Graphics/SVG/1.1/DTD/svg11.dtd">
<svg version="1.1" id="圖層_1" xmlns="http://www.w3.org/2000/svg" xmlns:xlink="http://www.w3.org/1999/xlink" x="0px" y="0px"
	 width="368.154px" height="50.836px" viewBox="0 0 368.154 50.836" enable-background="new 0 0 368.154 50.836"
	 xml:space="preserve">
<path fill-rule="evenodd" clip-rule="evenodd" fill="#FFFFFF" d="M24.214,0c13.434-0.065,24.62,11.012,24.607,24.367
	c-0.013,13.237-11.398,24.547-24.628,24.464C10.95,48.75,0.104,37.884,0.001,24.598C-0.104,10.983,10.641,0.067,24.214,0z
	 M32.701,10.798c0.042-1.801-0.577-2.397-2.758-2.662c-4.658-0.565-7.851,2.058-8.336,7.056c-0.226,2.327,0.17,4.801-3.292,5.002
	c-1.503,0.087-1.678,1.403-1.69,2.611c-0.012,1.185,0.027,2.574,1.549,2.687c3.749,0.279,3.337,2.966,3.369,5.449
	c0.03,2.325,0.056,4.65,0.084,6.976c0.023,1.948,1.165,2.521,2.924,2.494c1.706-0.025,2.965-0.498,3-2.468
	c0.044-2.491,0.071-4.983,0.062-7.475c-0.009-2.389-0.178-4.777,3.25-5.003c1.406-0.093,1.805-1.252,1.836-2.537
	c0.037-1.496-0.388-2.682-2.082-2.825c-1.97-0.168-3.018-1.011-2.975-3.136c0.039-1.912,0.672-3.24,2.684-3.559
	C31.847,13.167,32.77,12.452,32.701,10.798z"/>
<path fill-rule="evenodd" clip-rule="evenodd" fill="#FFFFFF" d="M319.334,26.159c0.076-13.548,11.086-24.338,24.652-24.156
	c13.244,0.177,24.146,11.141,24.168,24.306c0.021,13.24-11.318,24.561-24.568,24.524C330.162,50.796,319.26,39.703,319.334,26.159z
	 M336.205,36.239c4.596,4.991,16.605,0.729,18.355-4.118c0.607-1.68,0.865-3.524-0.545-4.654c-2.643-2.121-2.67-7.792-8.178-6.167
	c-0.285,0.084-1.012-0.749-1.281-1.282c-1.41-2.769-3.553-2.045-5.543-1.066c-3.545,1.743-6.186,4.492-7.869,8.076
	c-0.963,2.052-1.043,4.177-0.02,6.273c0.332,0.68,0.883,1.066,1.564,0.749c0.326-0.151,0.58-0.743,0.627-1.163
	c0.695-6.134,6.621-9.479,12.73-7.16c2.164,0.822,3.973,2.077,3.789,4.651c-0.189,2.671-2.047,4.181-4.506,4.662
	C342.496,35.594,339.596,35.81,336.205,36.239z M358.818,23.177c0.168-5.547-2.252-8.989-5.979-9.548
	c-1.492-0.224-2.678,0.008-2.98,1.703c-0.705,3.954,1.967,5.463,4.592,7.237c1.475-2.746-2.119-3.522-1.26-5.86
	C356.674,17.089,356.336,20.858,358.818,23.177z M340.4,28.077c-1.707,0.278-3.176,1.005-3.168,3.067
	c0.008,1.76,1.393,2.089,2.803,2.097c1.82,0.01,3.48-0.598,3.543-2.644C343.635,28.783,342.158,28.153,340.4,28.077z"/>
<path fill-rule="evenodd" clip-rule="evenodd" fill="#FFFFFF" d="M191.6,26.336c0.002-13.576,10.906-24.419,24.474-24.338
	c13.24,0.08,24.223,10.965,24.346,24.133c0.125,13.227-11.109,24.604-24.391,24.703C202.647,50.933,191.6,39.856,191.6,26.336z
	 M229.367,23.093c0.676-4.759-1.873-8.199-6.404-10.223c-5.246-2.342-10.176-1.255-14.43,2.393
	c-3.41,2.924-4.851,6.768-3.625,11.226c0.459,1.66,1.162,4.114,3.451,3.358c2.043-0.674,0.318-2.537,0.064-3.858
	c-0.775-4.033,0.439-7.335,3.916-9.482c3.201-1.978,6.717-2.175,9.924-0.019c3.418,2.298,3.615,5.803,2.648,9.396
	c-0.832,3.091-1.959,6.932-5.887,6.148c-4.574-0.911-2.063-4.689-1.615-7.388c0.332-2.01,1.049-4.421-1.633-4.936
	c-2.734-0.524-4.051,1.823-3.811,4.097c0.506,4.813-1.172,9.201-1.963,13.764c-0.246,1.428-1.043,3.431,0.727,3.982
	c2.232,0.696,2.182-1.815,3.006-3.099c0.871-1.359-0.275-4.197,3.391-3.552C225.1,36.303,229.334,32.16,229.367,23.093z"/>
<path fill-rule="evenodd" clip-rule="evenodd" fill="#FFFFFF" d="M63.868,26.565C63.776,12.958,74.544,2.048,88.113,2
	c13.435-0.048,24.607,11.047,24.574,24.4c-0.031,13.233-11.443,24.538-24.661,24.431C74.777,50.724,63.958,39.856,63.868,26.565z
	 M77.471,36.799c1.655,1.81,3.363,1.772,5.01,1.867c10.071,0.58,15.877-4.556,18.397-16.246c0.516-2.386,2.583-4.861-1.851-6.21
	c-3.949-1.201-7.81-1.875-9.286,2.467c-1.566,4.61-3.959,3.462-6.758,2.244c-1.507-0.655-2.874-1.663-4.235-2.611
	c-2.078-1.449-2.832-0.359-2.644,1.543c0.506,5.119,1.387,10.158,5.252,14.272C80.155,34.954,78.974,35.765,77.471,36.799z"/>
<g>
	<path fill-rule="evenodd" clip-rule="evenodd" fill="#FFFFFF" d="M127.734,26.421C127.698,12.833,138.544,1.973,152.123,2
		c13.43,0.027,24.547,11.196,24.431,24.544c-0.114,13.045-11.206,24.129-24.307,24.29C138.882,50.998,127.769,39.93,127.734,26.421z
		 M153.05,16.922c0,0.012,0,0.022,0,0.033c-2.492,0-4.99-0.106-7.475,0.022c-5.756,0.298-8.004,2.845-8.162,9.048
		c-0.191,7.471,1.797,10.403,7.926,10.8c4.797,0.311,9.64,0.276,14.443,0.032c5.537-0.282,7.982-3.052,8.184-8.6
		c0.32-8.827-2.041-11.276-10.93-11.335C155.708,16.916,154.378,16.922,153.05,16.922z"/>
	<path fill-rule="evenodd" clip-rule="evenodd" fill="#FFFFFF" d="M151.361,22.129c1.986,1.257,5.143,1.654,5.223,3.971
		c0.07,2.069-2.94,3.053-4.84,3.482c-2.716,0.613-1.896-2.002-1.977-3.385C149.685,24.762,149.154,22.892,151.361,22.129z"/>
</g>
<g>
	<path fill-rule="evenodd" clip-rule="evenodd" fill="#FFFFFF" d="M280.021,2.001C293.453,2.121,304.5,13.37,304.285,26.71
		c-0.209,13.053-11.402,24.086-24.471,24.123c-13.402,0.038-24.383-11.046-24.348-24.578C255.5,12.69,266.441,1.881,280.021,2.001z
		 M279.971,40.027c2.996,0,5.996-0.118,8.984,0.032c3.254,0.164,4.445-1.246,4.363-4.436c-0.146-5.654-0.133-11.317-0.01-16.973
		c0.072-3.409-1.439-4.888-4.766-4.839c-3.328,0.048-6.656-0.021-9.984-0.009c-13.436,0.049-12.465-1.316-12.473,12.267
		C266.08,40.043,266.084,40.043,279.971,40.027z"/>
	<path fill-rule="evenodd" clip-rule="evenodd" fill="#FFFFFF" d="M270.027,25.932c1.9,0.994,1.404,2.55,1.811,3.724
		c1.352,3.899,4.121,6.112,8.152,5.932c4.316-0.193,6.861-2.88,7.592-7.154c0.178-1.04-0.537-2.668,1.219-2.671
		c1.551-0.003,1.377,1.563,1.48,2.683c0.047,0.493,0.016,0.994,0.027,1.492c0.18,7.716,0.182,7.716-7.424,7.719
		c-1.326,0.001-2.654-0.004-3.98-0.004C268.326,37.657,268.027,37.278,270.027,25.932z"/>
	<path fill-rule="evenodd" clip-rule="evenodd" fill="#FFFFFF" d="M285.281,27.318c-0.043,2.23-4.428,6.089-6.734,5.58
		c-2.873-0.635-3.814-3.172-3.756-5.679c0.068-3.032,2.016-4.802,5.145-4.862C282.422,22.309,285.326,25.094,285.281,27.318z"/>
	<path fill-rule="evenodd" clip-rule="evenodd" fill="#FFFFFF" d="M287.877,22.026c-1.551,0.039-2.639-0.557-2.652-2.239
		c-0.014-1.545,0.836-2.501,2.408-2.626c1.59-0.127,2.533,0.585,2.574,2.271C290.244,21.029,289.504,21.925,287.877,22.026z"/>
</g>
</svg>
